<?xml version="1.0" standalone="no"?>
<!DOCTYPE svg PUBLIC "-//W3C//DTD SVG 20010904//EN"
 "http://www.w3.org/TR/2001/REC-SVG-20010904/DTD/svg10.dtd">
<svg version="1.0" xmlns="http://www.w3.org/2000/svg"
 width="257.000000pt" height="218.000000pt" viewBox="0 0 257.000000 218.000000"
 preserveAspectRatio="xMidYMid meet">
<metadata>
Created by potrace 1.10, written by Peter Selinger 2001-2011
</metadata>
<g transform="translate(0.000000,218.000000) scale(0.100000,-0.100000)"
fill="#000000" stroke="none">
<path d="M1150 2107 c0 -4 7 -22 16 -39 15 -30 15 -32 -2 -46 -13 -9 -14 -13
-4 -10 16 5 34 37 44 78 5 21 4 21 -8 -4 l-13 -30 -16 30 c-9 16 -16 25 -17
21z"/>
<path d="M1092 2065 c-14 -31 -16 -46 -2 -25 6 10 9 -159 10 -467 l0 -483
-496 0 c-273 1 -499 -2 -502 -5 -3 -3 42 -5 99 -5 57 0 194 -2 304 -3 l200 -2
197 -390 c108 -214 196 -392 196 -395 0 -3 1 -52 3 -110 l3 -105 5 105 6 105
40 6 c43 7 43 8 6 15 -13 2 -30 -1 -37 -7 -12 -9 -14 52 -14 385 l0 396 396 0
c359 0 395 -2 383 -16 -10 -12 -13 -96 -13 -382 l-1 -367 -292 4 c-213 2 -293
0 -293 -8 0 -16 -27 -13 -34 4 -3 8 -17 15 -31 15 -23 0 -25 -3 -24 -47 1 -27
4 -38 6 -26 6 29 26 29 47 0 16 -22 16 -22 6 0 -5 12 -10 24 -10 27 0 3 146 6
325 6 l325 0 2 393 3 392 85 3 c59 1 80 -1 70 -8 -22 -14 1 -12 28 3 l23 13
-26 12 c-31 14 -46 16 -25 2 10 -6 -86 -9 -270 -7 l-285 2 -3 40 -3 39 19 -24
19 -23 16 48 c10 27 15 50 13 53 -3 2 -10 -14 -17 -37 -7 -23 -15 -41 -20 -41
-11 0 -18 26 -12 50 4 16 0 23 -15 27 -11 3 -39 34 -62 69 -37 57 -118 134
-141 134 -22 0 -2 -24 43 -53 15 -9 46 -44 70 -77 23 -33 44 -60 47 -60 4 0 5
-24 4 -52 -1 -29 1 -43 3 -30 3 12 12 22 19 22 11 0 12 -7 5 -32 -7 -21 -6
-36 1 -45 10 -11 -23 -13 -185 -13 l-196 0 0 196 c0 168 2 195 14 185 8 -7 17
-8 20 -3 3 6 -3 12 -14 15 -19 5 -20 14 -20 289 1 182 4 278 10 268 14 -22 11
1 -3 28 l-13 23 -12 -26z m418 -859 c0 -9 -9 -14 -20 -13 -11 1 -20 7 -20 14
0 7 9 13 20 13 11 0 20 -6 20 -14z m-411 -508 c-1 -301 -4 -376 -13 -348 -17
54 -339 693 -358 712 -17 17 -9 18 177 18 l195 0 -1 -382z m151 -393 c0 -8 -9
-15 -20 -15 -11 0 -20 7 -20 15 0 8 9 15 20 15 11 0 20 -7 20 -15z"/>
<path d="M1161 1883 c1 -26 4 -38 6 -25 2 12 10 22 17 22 8 0 21 -10 30 -22 9
-13 14 -16 9 -8 -4 8 -7 28 -8 45 0 25 -4 31 -27 33 -27 3 -28 2 -27 -45z m49
22 c0 -8 -9 -15 -20 -15 -11 0 -20 7 -20 15 0 8 9 15 20 15 11 0 20 -7 20 -15z"/>
<path d="M1161 1483 c1 -26 4 -38 6 -25 6 30 27 28 48 -4 14 -21 19 -24 26
-13 6 9 12 10 17 4 4 -6 24 -7 47 -4 23 4 30 7 16 8 l-24 1 23 24 c13 15 20
32 17 40 -7 17 -42 22 -51 7 -4 -5 2 -7 13 -4 30 8 35 -16 10 -43 -38 -40 -67
-28 -49 22 6 15 8 29 6 31 -3 3 -10 -13 -17 -36 -7 -23 -16 -41 -21 -41 -8 0
-10 7 -12 50 -1 20 -7 26 -28 28 -27 3 -28 2 -27 -45z m49 22 c0 -8 -9 -15
-20 -15 -11 0 -20 7 -20 15 0 8 9 15 20 15 11 0 20 -7 20 -15z"/>
<path d="M301 1183 c1 -26 4 -38 6 -25 2 12 10 22 17 22 8 0 21 -10 30 -22 9
-13 14 -16 9 -8 -4 8 -7 28 -8 45 0 25 -4 31 -27 33 -27 3 -28 2 -27 -45z m49
22 c0 -8 -9 -15 -20 -15 -11 0 -20 7 -20 15 0 8 9 15 20 15 11 0 20 -7 20 -15z"/>
<path d="M701 1183 c1 -26 4 -38 6 -25 6 29 23 28 49 -5 l21 -27 16 49 c10 27
15 50 13 53 -3 2 -10 -14 -17 -37 -7 -23 -16 -41 -21 -41 -8 0 -10 7 -12 50
-1 20 -7 26 -28 28 -27 3 -28 2 -27 -45z m49 22 c0 -8 -9 -15 -20 -15 -11 0
-20 7 -20 15 0 8 9 15 20 15 11 0 20 -7 20 -15z"/>
<path d="M826 1221 c-4 -5 2 -7 13 -4 32 8 35 -17 5 -48 l-28 -29 35 1 c25 1
28 3 11 6 l-24 5 22 23 c13 14 20 31 17 39 -7 17 -42 22 -51 7z"/>
<path d="M1586 1221 c-4 -5 2 -7 13 -4 32 8 35 -17 5 -48 l-28 -29 35 1 c25 1
28 3 11 6 l-24 5 22 23 c13 14 20 31 17 39 -7 17 -42 22 -51 7z"/>
<path d="M1861 1183 c1 -26 4 -38 6 -25 2 12 10 22 17 22 8 0 21 -10 30 -22 9
-13 14 -16 9 -8 -4 8 -7 28 -8 45 0 25 -4 31 -27 33 -27 3 -28 2 -27 -45z m49
22 c0 -8 -9 -15 -20 -15 -11 0 -20 7 -20 15 0 8 9 15 20 15 11 0 20 -7 20 -15z"/>
<path d="M2059 1195 c6 -13 6 -27 0 -40 -10 -20 -10 -20 5 -1 16 20 16 20 32
0 15 -19 15 -19 5 1 -6 13 -6 27 0 40 10 20 10 20 -5 1 -16 -20 -16 -20 -32 0
-15 19 -15 19 -5 -1z"/>
<path d="M268 1173 c7 -3 16 -2 19 1 4 3 -2 6 -13 5 -11 0 -14 -3 -6 -6z"/>
<path d="M668 1173 c7 -3 16 -2 19 1 4 3 -2 6 -13 5 -11 0 -14 -3 -6 -6z"/>
<path d="M1201 683 c1 -26 4 -38 6 -25 6 29 23 28 49 -5 l21 -27 16 49 c10 27
15 50 13 53 -3 2 -10 -14 -17 -37 -7 -23 -16 -41 -21 -41 -8 0 -10 7 -12 50
-1 20 -7 26 -28 28 -27 3 -28 2 -27 -45z m49 22 c0 -8 -9 -15 -20 -15 -11 0
-20 7 -20 15 0 8 9 15 20 15 11 0 20 -7 20 -15z"/>
<path d="M1326 721 c-4 -5 2 -7 13 -4 32 8 35 -17 5 -48 l-28 -29 35 1 c25 1
28 3 11 6 l-24 5 22 23 c13 14 20 31 17 39 -7 17 -42 22 -51 7z"/>
<path d="M1168 673 c7 -3 16 -2 19 1 4 3 -2 6 -13 5 -11 0 -14 -3 -6 -6z"/>
<path d="M1168 273 c7 -3 16 -2 19 1 4 3 -2 6 -13 5 -11 0 -14 -3 -6 -6z"/>
</g>
</svg>
